<svg width="21" height="14" viewBox="0 0 21 14" fill="none" xmlns="http://www.w3.org/2000/svg">
<g clip-path="url(#clip0_169_207)">
<path fill-rule="evenodd" clip-rule="evenodd" d="M0 0V14H21V0H0Z" fill="#2E42A5"/>
<mask id="mask0_169_207" style="mask-type:luminance" maskUnits="userSpaceOnUse" x="0" y="0" width="21" height="14">
<path fill-rule="evenodd" clip-rule="evenodd" d="M0 0V14H21V0H0Z" fill="white"/>
</mask>
<g mask="url(#mask0_169_207)">
<path d="M-2.33838 12.9996L2.28293 14.7373L21.1042 1.88883L23.5422 -0.693006L18.6006 -1.27342L10.9238 4.26299L4.74453 7.99399L-2.33838 12.9996Z" fill="white"/>
<path d="M-1.7063 14.217L0.648982 15.225L22.6668 -0.932755H19.3613L-1.7063 14.217Z" fill="#F50100"/>
<path d="M23.3381 12.9996L18.7167 14.7373L-0.104511 1.88883L-2.54248 -0.693006L2.39908 -1.27342L10.0759 4.26299L16.2551 7.99399L23.3381 12.9996Z" fill="white"/>
<path d="M23.1806 13.8734L20.826 14.8814L11.4508 7.96308L8.67094 7.19075L-2.77734 -0.68425H0.528843L11.9699 7.00408L15.009 7.93042L23.1806 13.8734Z" fill="#F50100"/>
<path fill-rule="evenodd" clip-rule="evenodd" d="M12.9792 -1.16667H8.02062V4.66666H-1.29419V9.33333H8.02062V15.1667H12.9792V9.33333H22.3308V4.66666H12.9792V-1.16667Z" fill="#F50100"/>
<mask id="mask1_169_207" style="mask-type:luminance" maskUnits="userSpaceOnUse" x="-2" y="-2" width="25" height="18">
<path fill-rule="evenodd" clip-rule="evenodd" d="M12.9792 -1.16667H8.02062V4.66666H-1.29419V9.33333H8.02062V15.1667H12.9792V9.33333H22.3308V4.66666H12.9792V-1.16667Z" fill="white"/>
</mask>
<g mask="url(#mask1_169_207)">
<path d="M8.02062 -1.16668V-2.33334H6.70812V-1.16668H8.02062ZM12.9792 -1.16668H14.2917V-2.33334H12.9792V-1.16668ZM8.02062 4.66666V5.83332H9.33312V4.66666H8.02062ZM-1.29419 4.66666V3.49999H-2.60669V4.66666H-1.29419ZM-1.29419 9.33332H-2.60669V10.5H-1.29419V9.33332ZM8.02062 9.33332H9.33312V8.16666H8.02062V9.33332ZM8.02062 15.1667H6.70812V16.3333H8.02062V15.1667ZM12.9792 15.1667V16.3333H14.2917V15.1667H12.9792ZM12.9792 9.33332V8.16666H11.6667V9.33332H12.9792ZM22.3308 9.33332V10.5H23.6433V9.33332H22.3308ZM22.3308 4.66666H23.6433V3.49999H22.3308V4.66666ZM12.9792 4.66666H11.6667V5.83332H12.9792V4.66666ZM8.02062 -1.0252e-05H12.9792V-2.33334H8.02062V-1.0252e-05ZM9.33312 4.66666V-1.16668H6.70812V4.66666H9.33312ZM-1.29419 5.83332H8.02062V3.49999H-1.29419V5.83332ZM0.0183105 9.33332V4.66666H-2.60669V9.33332H0.0183105ZM8.02062 8.16666H-1.29419V10.5H8.02062V8.16666ZM9.33312 15.1667V9.33332H6.70812V15.1667H9.33312ZM12.9792 14H8.02062V16.3333H12.9792V14ZM11.6667 9.33332V15.1667H14.2917V9.33332H11.6667ZM22.3308 8.16666H12.9792V10.5H22.3308V8.16666ZM21.0183 4.66666V9.33332H23.6433V4.66666H21.0183ZM12.9792 5.83332H22.3308V3.49999H12.9792V5.83332ZM11.6667 -1.16668V4.66666H14.2917V-1.16668H11.6667Z" fill="white"/>
</g>
</g>
</g>
<defs>
<clipPath id="clip0_169_207">
<rect width="21" height="14" rx="3" fill="white"/>
</clipPath>
</defs>
</svg>
