<svg width="20" height="20" viewBox="0 0 20 20" fill="none" xmlns="http://www.w3.org/2000/svg">
<path fill-rule="evenodd" clip-rule="evenodd" d="M6.71995 10.3103C5.6948 10.0381 3.62988 9.27473 3.62988 7.54317C3.62988 5.24051 6.43989 2.07625 6.43989 2.07625C6.43989 2.07625 7.35479 0.508751 9.92862 0.508751C12.5019 0.508751 13.8171 2.07625 13.8171 2.07625C13.8171 2.07625 15.6474 4.12811 15.6474 7.54317C15.6474 9.30295 14.6149 10.0172 13.6143 10.2967C12.8013 11.2634 11.5478 11.8763 10.1611 11.8763C8.78069 11.8763 7.53348 11.2696 6.71995 10.3103ZM7.023 8.82538C7.50579 9.98742 8.71172 10.8318 10.1606 10.8318C10.7563 10.8318 11.3106 10.6886 11.7908 10.4399L11.7584 10.4363C11.7584 10.4363 14.8819 7.42247 12.2511 3.64375C11.9653 3.11237 7.61238 4.4275 7.02613 5.21125C6.67397 5.6815 6.83699 7.47106 7.02352 8.82538" fill="#DF2155"/>
<path d="M4.90111 15.3697C4.58588 15.5628 4.34904 15.8611 4.23244 16.2119C4.11584 16.5627 4.12698 16.9435 4.26389 17.2869C4.4008 17.6302 4.65467 17.9142 4.98065 18.0886C5.30663 18.2629 5.68375 18.3164 6.04537 18.2397C6.40699 18.1629 6.72986 17.9608 6.95691 17.6691C7.18397 17.3774 7.30062 17.0148 7.28624 16.6454C7.27186 16.276 7.12739 15.9235 6.87835 15.6503C6.6293 15.3771 6.29171 15.2008 5.92522 15.1523C5.90564 15.0822 5.8877 15.0117 5.8714 14.9407C5.80024 14.6179 5.74444 14.2918 5.7042 13.9636C5.661 13.6319 5.63658 13.2981 5.63105 12.9636C5.6302 12.8717 5.63282 12.7799 5.63889 12.6882C5.83987 12.6304 6.04104 12.5787 6.24237 12.533C6.4728 12.4808 6.60969 12.7525 6.71994 12.973L6.72569 12.9845L6.76487 13.0613H12.9037C13.0234 12.8345 13.2946 12.473 13.5574 12.533C13.8381 12.5968 14.1184 12.6722 14.3981 12.7593L14.3965 12.7598C14.3955 12.7588 14.3955 12.7591 14.3965 12.7609C14.3986 12.7682 14.4101 12.8027 14.4216 12.8758C14.4348 12.9608 14.4435 13.0697 14.4477 13.2024C14.455 13.4657 14.4399 13.786 14.409 14.1089C14.3777 14.4313 14.3312 14.7432 14.2789 14.9893C14.2675 15.044 14.256 15.0938 14.2445 15.1388H13.5574C13.4604 15.1388 13.3653 15.1659 13.2828 15.2169C13.2003 15.2679 13.1336 15.3409 13.0903 15.4277L12.5678 16.4727C12.5314 16.5452 12.5125 16.6252 12.5124 16.7063V17.7513C12.5124 17.8898 12.5674 18.0227 12.6654 18.1207C12.7634 18.2187 12.8963 18.2738 13.0349 18.2738H14.0799V17.2288H13.5574V16.8296L13.8803 16.1838H15.3245L15.6474 16.8296V17.2288H15.1249V18.2738H16.1699C16.3084 18.2738 16.4413 18.2187 16.5393 18.1207C16.6373 18.0227 16.6924 17.8898 16.6924 17.7513V16.7063C16.6923 16.6252 16.6733 16.5452 16.637 16.4727L16.1145 15.4277C16.0711 15.3409 16.0045 15.2679 15.922 15.2169C15.8395 15.1659 15.7444 15.1388 15.6474 15.1388H15.3151C15.371 14.8603 15.4175 14.5353 15.4488 14.2092C15.4833 13.8571 15.5011 13.4918 15.4922 13.1731L15.4917 13.1585C17.5754 14.0389 19.3049 15.4867 19.3049 17.0041V19.8413H0.494873V17.0041C0.494873 15.4199 2.3811 13.9109 4.58657 13.0451C4.59232 13.3701 4.62315 13.7374 4.66756 14.0932C4.71563 14.4773 4.78094 14.8592 4.85304 15.1738C4.86872 15.241 4.88474 15.3063 4.90111 15.3697Z" fill="#DF2155"/>
<path d="M5.72001 17.2366C6.00111 17.2366 6.24251 17.0067 6.24251 16.7063C6.24251 16.4063 6.00111 16.1759 5.72001 16.1759C5.4389 16.1759 5.19751 16.4058 5.19751 16.7063C5.19751 17.0062 5.4389 17.2366 5.72001 17.2366Z" fill="#DF2155"/>
</svg>
