<svg width="19" height="20" viewBox="0 0 19 20" fill="none" xmlns="http://www.w3.org/2000/svg">
<path fill-rule="evenodd" clip-rule="evenodd" d="M14.5429 4.56046C14.5429 6.36883 14.0936 8.72739 13.4023 8.36948C13.1197 9.29259 12.5262 10.0894 11.7228 10.6247C10.9193 11.1599 9.95536 11.4006 8.99461 11.3058C8.03386 11.211 7.13552 10.7866 6.45213 10.1047C5.76874 9.4228 5.34243 8.52538 5.24558 7.56483C4.55954 6.36465 3.6598 3.95958 5.9729 2.08485C6.0147 2.07127 6.03978 1.95841 6.0774 1.79225C6.22057 1.16368 6.53773 -0.233481 8.53838 0.0335167C10.0813 0.238859 14.5429 1.03515 14.5429 4.56046ZM12.5543 5.70107C12.5543 5.70107 12.3181 6.39182 12.5397 7.16146C12.5368 7.98209 12.2123 8.76888 11.6357 9.35289C11.0592 9.9369 10.2767 10.2716 9.45618 10.285C8.63565 10.2985 7.84256 9.98972 7.24718 9.42496C6.65179 8.86019 6.3016 8.08449 6.27177 7.26439C6.34754 6.97702 6.34754 6.49057 6.34701 5.94978C6.34649 4.97428 6.34545 3.82321 6.79218 3.354C9.92144 5.43826 12.5543 5.70107 12.5543 5.70107Z" fill="#DF2155"/>
<path d="M3.65726 16.1547C3.65726 15.5894 3.95665 15.0941 4.406 14.8182C4.38893 14.7531 4.3729 14.6878 4.35793 14.6222C4.27895 14.2652 4.21705 13.9046 4.17244 13.5417C4.12788 13.1939 4.10085 12.8441 4.09145 12.4936C1.88598 13.3594 -0.000244141 14.8683 -0.000244141 16.4526V19.2897H18.8098V16.4526C18.8098 14.9352 17.0803 13.4874 14.9966 12.607V12.6216C15.006 12.9403 14.9882 13.3061 14.9537 13.6577C14.9224 13.9837 14.8759 14.3087 14.8199 14.5872H15.1523C15.2493 14.5873 15.3443 14.6143 15.4268 14.6654C15.5093 14.7164 15.576 14.7894 15.6194 14.8762L16.1419 15.9212C16.1784 15.9938 16.1973 16.0737 16.1973 16.1547V17.1997C16.1973 17.3383 16.1422 17.4712 16.0442 17.5692C15.9462 17.6672 15.8133 17.7222 15.6748 17.7222H14.6298V16.6772H15.1523V16.278L14.8294 15.6322H13.3852L13.0623 16.278V16.6772H13.5848V17.7222H12.5398C12.4012 17.7222 12.2683 17.6672 12.1703 17.5692C12.0723 17.4712 12.0173 17.3383 12.0173 17.1997V16.1547C12.0173 16.0737 12.0361 15.9938 12.0726 15.9212L12.5951 14.8762C12.6385 14.7894 12.7052 14.7164 12.7877 14.6654C12.8702 14.6143 12.9652 14.5873 13.0623 14.5872H13.7493C13.7608 14.5423 13.7723 14.4925 13.7838 14.4378C13.8361 14.1917 13.8826 13.8798 13.9139 13.5574C13.9453 13.2345 13.9599 12.9142 13.9521 12.6508C13.9504 12.5417 13.9418 12.4328 13.9265 12.3248C13.915 12.2506 13.9035 12.2166 13.9014 12.2093C13.9007 12.2076 13.9007 12.2072 13.9014 12.2083L13.903 12.2078C13.6257 12.1218 13.3452 12.0463 13.0623 11.9815C12.7994 11.9214 12.5277 12.283 12.4091 12.5092H6.26976L6.22482 12.4215C6.11405 12.201 5.97768 11.9287 5.74726 11.9815C5.54592 12.0272 5.34476 12.0789 5.14377 12.1367C5.13753 12.2284 5.13474 12.3202 5.13541 12.4121C5.1375 12.701 5.16519 13.0547 5.2096 13.4121C5.25402 13.7685 5.3141 14.1154 5.3768 14.3892C5.39492 14.4683 5.41233 14.5386 5.42905 14.6003C5.72777 14.6396 6.00885 14.7641 6.23863 14.959C6.46841 15.1538 6.63716 15.4108 6.72467 15.6991C6.81219 15.9874 6.81476 16.2948 6.73209 16.5845C6.64941 16.8743 6.48499 17.134 6.25851 17.3327C6.03203 17.5314 5.75308 17.6606 5.45506 17.7049C5.15704 17.7492 4.85258 17.7066 4.57812 17.5823C4.30366 17.458 4.07084 17.2573 3.90752 17.0041C3.7442 16.7509 3.65732 16.456 3.65726 16.1547Z" fill="#DF2155"/>
<path d="M5.74715 16.1547C5.74715 16.4546 5.50575 16.6851 5.22465 16.6851C4.94354 16.6851 4.70215 16.4552 4.70215 16.1547C4.70215 15.8548 4.94354 15.6244 5.22465 15.6244C5.50575 15.6244 5.74715 15.8543 5.74715 16.1547Z" fill="#DF2155"/>
</svg>
